<svg width="42" height="42" viewBox="0 0 42 42" fill="none" xmlns="http://www.w3.org/2000/svg">
<path d="M41.2984 26.3827C40.0531 31.0788 37.218 35.1979 33.2762 38.0381C29.3343 40.8782 24.5296 42.2637 19.6808 41.9585C14.8319 41.6533 10.2389 39.6763 6.68427 36.3642C3.12967 33.0522 0.833438 28.6102 0.18682 23.7949C-0.459798 18.9797 0.583209 14.0892 3.13812 9.95675C5.69304 5.82431 9.60178 2.70559 14.1984 1.132C18.7949 -0.441602 23.7949 -0.372719 28.3464 1.32691C32.8979 3.02654 36.7192 6.25175 39.1593 10.453L30.2502 15.6274C29.0072 13.4874 27.0607 11.8445 24.7422 10.9787C22.4237 10.1129 19.8768 10.0778 17.5353 10.8794C15.1938 11.681 13.2028 13.2696 11.9013 15.3747C10.5998 17.4797 10.0685 19.9709 10.3979 22.4237C10.7273 24.8766 11.897 27.1393 13.7077 28.8264C15.5184 30.5135 17.858 31.5206 20.328 31.6761C22.798 31.8316 25.2454 31.1258 27.2534 29.6791C29.2613 28.2323 30.7055 26.1341 31.3399 23.7419L41.2984 26.3827Z" fill="#060681"/>
</svg>
